<svg width="16" height="16" viewBox="0 0 16 16" fill="none" xmlns="http://www.w3.org/2000/svg">
<path d="M2.26654 10.9334L0.733203 9.43337C0.59987 9.30004 0.533203 9.14449 0.533203 8.96671C0.533203 8.78893 0.59987 8.63337 0.733203 8.50004C1.71098 7.44448 2.83876 6.65282 4.11654 6.12504C5.39431 5.59726 6.68876 5.33337 7.99987 5.33337C9.31098 5.33337 10.6026 5.59726 11.8749 6.12504C13.1471 6.65282 14.2776 7.44448 15.2665 8.50004C15.3999 8.63337 15.4665 8.78893 15.4665 8.96671C15.4665 9.14449 15.3999 9.30004 15.2665 9.43337L13.7332 10.9334C13.611 11.0556 13.4693 11.1223 13.3082 11.1334C13.1471 11.1445 12.9999 11.1 12.8665 11L10.9332 9.53337C10.8443 9.46671 10.7776 9.38893 10.7332 9.30004C10.6888 9.21115 10.6665 9.11115 10.6665 9.00004V7.10004C10.2443 6.96671 9.81098 6.86115 9.36654 6.78337C8.92209 6.7056 8.46654 6.66671 7.99987 6.66671C7.5332 6.66671 7.07765 6.7056 6.6332 6.78337C6.18876 6.86115 5.75543 6.96671 5.3332 7.10004V9.00004C5.3332 9.11115 5.31098 9.21115 5.26654 9.30004C5.22209 9.38893 5.15543 9.46671 5.06654 9.53337L3.1332 11C2.99987 11.1 2.85265 11.1445 2.69154 11.1334C2.53043 11.1223 2.38876 11.0556 2.26654 10.9334ZM3.99987 7.63337C3.67765 7.80004 3.36654 7.99171 3.06654 8.20837C2.76654 8.42504 2.45543 8.66671 2.1332 8.93337L2.79987 9.60004L3.99987 8.66671V7.63337ZM11.9999 7.66671V8.66671L13.1999 9.60004L13.8665 8.96671C13.5443 8.67782 13.2332 8.42782 12.9332 8.21671C12.6332 8.0056 12.3221 7.82226 11.9999 7.66671Z" fill="#605D64"/>
</svg>
