<svg width="16" height="16" viewBox="0 0 16 16" fill="none" xmlns="http://www.w3.org/2000/svg">
<path d="M12.2598 10.04C11.1398 9.46671 9.6865 9.00004 7.99984 9.00004C6.31317 9.00004 4.85984 9.46671 3.73984 10.04C3.07317 10.38 2.6665 11.0667 2.6665 11.8134V13.6667H13.3332V11.8134C13.3332 11.0667 12.9265 10.38 12.2598 10.04ZM11.9998 12.3334H3.99984V11.8134C3.99984 11.56 4.13317 11.3334 4.3465 11.2267C5.13984 10.82 6.41984 10.3334 7.99984 10.3334C9.57984 10.3334 10.8598 10.82 11.6532 11.2267C11.8665 11.3334 11.9998 11.56 11.9998 11.8134V12.3334Z" fill="#606060"/>
<path d="M7.99984 8.33337C9.47317 8.33337 10.6665 7.14004 10.6665 5.66671C10.6665 4.75337 10.6665 3.33337 10.6665 3.33337C10.6665 2.78004 10.2198 2.33337 9.6665 2.33337C9.31984 2.33337 9.01317 2.51337 8.83317 2.78004C8.65317 2.51337 8.3465 2.33337 7.99984 2.33337C7.65317 2.33337 7.3465 2.51337 7.1665 2.78004C6.9865 2.51337 6.67984 2.33337 6.33317 2.33337C5.77984 2.33337 5.33317 2.78004 5.33317 3.33337C5.33317 3.33337 5.33317 4.74671 5.33317 5.66671C5.33317 7.14004 6.5265 8.33337 7.99984 8.33337ZM6.6665 4.00004H9.33317V5.66671C9.33317 6.40004 8.73317 7.00004 7.99984 7.00004C7.2665 7.00004 6.6665 6.40004 6.6665 5.66671V4.00004Z" fill="#606060"/>
</svg>
