<svg width="11" height="10" viewBox="0 0 11 10" fill="none" xmlns="http://www.w3.org/2000/svg">
<mask id="path-1-inside-1_55_117" fill="white">
<path d="M5.75 0C8.51142 0 10.75 2.23858 10.75 5C10.75 7.76142 8.51142 10 5.75 10C5.29251 10 4.8497 9.93735 4.42871 9.82227C4.43929 9.78268 4.44947 9.74304 4.46094 9.7041C4.47175 9.70714 4.48272 9.71087 4.49414 9.71094H5.54102C6.64189 9.7109 7.58952 9.41932 8.2832 8.72559C8.97576 8.03276 9.39752 6.95614 9.48535 5.42578V4.72461C9.48526 4.67301 9.45386 4.62838 9.40918 4.60938L9.36035 4.59961H7.9668C6.3884 4.59965 5.31274 4.95048 4.63086 5.54199C3.94622 6.13612 3.67735 6.95657 3.6748 7.84961L3.67578 8.00098C3.68508 8.35848 3.7552 8.92829 4.25781 9.5127C4.23268 9.59035 4.20901 9.66917 4.1875 9.74902C2.1916 9.09273 0.75 7.21554 0.75 5C0.75 2.23858 2.98858 0 5.75 0ZM9.23535 4.84961V5.41895C9.14869 6.90972 8.73946 7.91557 8.10645 8.54883C7.47372 9.1816 6.59859 9.4609 5.54102 9.46094H4.54883C4.54684 9.45883 4.54497 9.45618 4.54297 9.4541C4.64879 9.1607 4.78239 8.88647 4.9502 8.63477C5.32635 8.07061 5.87141 7.60803 6.63281 7.26953C6.6959 7.24149 6.72433 7.16758 6.69629 7.10449C6.66814 7.04164 6.59423 7.01303 6.53125 7.04102C5.73085 7.39684 5.1471 7.8888 4.74219 8.49609C4.58772 8.7278 4.45941 8.97552 4.35547 9.2373C4.04918 8.83499 3.95989 8.45095 3.93457 8.15723L3.9248 7.84961C3.92728 7.00705 4.17921 6.26462 4.79492 5.73047C5.41384 5.19357 6.42047 4.84965 7.9668 4.84961H9.23535Z"/>
</mask>
<path d="M5.75 0C8.51142 0 10.75 2.23858 10.75 5C10.75 7.76142 8.51142 10 5.75 10C5.29251 10 4.8497 9.93735 4.42871 9.82227C4.43929 9.78268 4.44947 9.74304 4.46094 9.7041C4.47175 9.70714 4.48272 9.71087 4.49414 9.71094H5.54102C6.64189 9.7109 7.58952 9.41932 8.2832 8.72559C8.97576 8.03276 9.39752 6.95614 9.48535 5.42578V4.72461C9.48526 4.67301 9.45386 4.62838 9.40918 4.60938L9.36035 4.59961H7.9668C6.3884 4.59965 5.31274 4.95048 4.63086 5.54199C3.94622 6.13612 3.67735 6.95657 3.6748 7.84961L3.67578 8.00098C3.68508 8.35848 3.7552 8.92829 4.25781 9.5127C4.23268 9.59035 4.20901 9.66917 4.1875 9.74902C2.1916 9.09273 0.75 7.21554 0.75 5C0.75 2.23858 2.98858 0 5.75 0ZM9.23535 4.84961V5.41895C9.14869 6.90972 8.73946 7.91557 8.10645 8.54883C7.47372 9.1816 6.59859 9.4609 5.54102 9.46094H4.54883C4.54684 9.45883 4.54497 9.45618 4.54297 9.4541C4.64879 9.1607 4.78239 8.88647 4.9502 8.63477C5.32635 8.07061 5.87141 7.60803 6.63281 7.26953C6.6959 7.24149 6.72433 7.16758 6.69629 7.10449C6.66814 7.04164 6.59423 7.01303 6.53125 7.04102C5.73085 7.39684 5.1471 7.8888 4.74219 8.49609C4.58772 8.7278 4.45941 8.97552 4.35547 9.2373C4.04918 8.83499 3.95989 8.45095 3.93457 8.15723L3.9248 7.84961C3.92728 7.00705 4.17921 6.26462 4.79492 5.73047C5.41384 5.19357 6.42047 4.84965 7.9668 4.84961H9.23535Z" fill="#BA9978"/>
<path d="M4.42871 9.82227L4.18719 9.75772L4.12301 9.99787L4.36279 10.0634L4.42871 9.82227ZM4.46094 9.7041L4.52866 9.46345L4.29092 9.39654L4.22113 9.63345L4.46094 9.7041ZM4.49414 9.71094L4.49277 9.96094H4.49414V9.71094ZM5.54102 9.71094V9.96094H5.54103L5.54102 9.71094ZM8.2832 8.72559L8.45999 8.90236L8.46001 8.90233L8.2832 8.72559ZM9.48535 5.42578L9.73494 5.44011L9.73535 5.43295V5.42578H9.48535ZM9.48535 4.72461H9.73535V4.72419L9.48535 4.72461ZM9.40918 4.60938L9.50704 4.37932L9.4834 4.36927L9.45821 4.36423L9.40918 4.60938ZM9.36035 4.59961L9.40938 4.35446L9.38511 4.34961H9.36035V4.59961ZM7.9668 4.59961V4.34961H7.96679L7.9668 4.59961ZM4.63086 5.54199L4.46704 5.35315L4.467 5.35318L4.63086 5.54199ZM3.6748 7.84961L3.42479 7.8489L3.42481 7.85122L3.6748 7.84961ZM3.67578 8.00098L3.42574 8.00259L3.42587 8.00748L3.67578 8.00098ZM4.25781 9.5127L4.49567 9.58967L4.53889 9.45611L4.44736 9.34968L4.25781 9.5127ZM4.1875 9.74902L4.10941 9.98651L4.36023 10.069L4.4289 9.81405L4.1875 9.74902ZM9.23535 4.84961H9.48535V4.59961H9.23535V4.84961ZM9.23535 5.41895L9.48493 5.43345L9.48535 5.42621V5.41895H9.23535ZM8.10645 8.54883L8.28323 8.7256L8.28326 8.72557L8.10645 8.54883ZM5.54102 9.46094V9.71094H5.54103L5.54102 9.46094ZM4.54883 9.46094L4.36686 9.63236L4.44088 9.71094H4.54883V9.46094ZM4.54297 9.4541L4.3078 9.36928L4.25518 9.51515L4.36249 9.6271L4.54297 9.4541ZM4.9502 8.63477L4.74219 8.49608L4.74218 8.49609L4.9502 8.63477ZM6.63281 7.26953L6.53128 7.04108L6.53125 7.04109L6.63281 7.26953ZM6.69629 7.10449L6.92474 7.00296L6.92445 7.00231L6.69629 7.10449ZM6.53125 7.04102L6.42972 6.81256L6.42969 6.81257L6.53125 7.04102ZM4.74219 8.49609L4.53418 8.35741L4.53417 8.35742L4.74219 8.49609ZM4.35547 9.2373L4.15655 9.38874L4.42455 9.74076L4.58782 9.32956L4.35547 9.2373ZM3.93457 8.15723L3.68433 8.16517L3.68549 8.1787L3.93457 8.15723ZM3.9248 7.84961L3.67466 7.84888L3.67493 7.85754L3.9248 7.84961ZM4.79492 5.73047L4.6311 5.54162L4.6311 5.54163L4.79492 5.73047ZM7.9668 4.84961V4.59961H7.96679L7.9668 4.84961ZM5.75 0V0.25C8.37335 0.25 10.5 2.37665 10.5 5H10.75H11C11 2.10051 8.6495 -0.25 5.75 -0.25V0ZM10.75 5H10.5C10.5 7.62335 8.37335 9.75 5.75 9.75V10V10.25C8.6495 10.25 11 7.8995 11 5H10.75ZM5.75 10V9.75C5.31545 9.75 4.8948 9.6905 4.49463 9.58111L4.42871 9.82227L4.36279 10.0634C4.8046 10.1842 5.26957 10.25 5.75 10.25V10ZM4.42871 9.82227L4.67023 9.88682C4.68168 9.84399 4.69046 9.80966 4.70075 9.77475L4.46094 9.7041L4.22113 9.63345C4.20847 9.67642 4.1969 9.72137 4.18719 9.75772L4.42871 9.82227ZM4.46094 9.7041L4.39321 9.94475C4.3967 9.94574 4.39315 9.94475 4.40045 9.94684C4.4045 9.948 4.41123 9.94988 4.41915 9.95178C4.43474 9.95551 4.46079 9.96076 4.49277 9.96093L4.49414 9.71094L4.49551 9.46094C4.51607 9.46105 4.53092 9.46441 4.53547 9.4655C4.53787 9.46607 4.53911 9.46645 4.53771 9.46605C4.53697 9.46584 4.53627 9.46564 4.5346 9.46515C4.53319 9.46474 4.53103 9.46412 4.52866 9.46345L4.46094 9.7041ZM4.49414 9.71094V9.96094H5.54102V9.71094V9.46094H4.49414V9.71094ZM5.54102 9.71094L5.54103 9.96094C6.68518 9.96089 7.70532 9.65707 8.45999 8.90236L8.2832 8.72559L8.10642 8.54881C7.47371 9.18157 6.5986 9.4609 5.54101 9.46094L5.54102 9.71094ZM8.2832 8.72559L8.46001 8.90233C9.21111 8.15094 9.64506 7.00619 9.73494 5.44011L9.48535 5.42578L9.23576 5.41146C9.14998 6.90608 8.74041 7.91458 8.10639 8.54884L8.2832 8.72559ZM9.48535 5.42578H9.73535V4.72461H9.48535H9.23535V5.42578H9.48535ZM9.48535 4.72461L9.73535 4.72419C9.73509 4.56964 9.64117 4.43638 9.50704 4.37932L9.40918 4.60938L9.31132 4.83943C9.26654 4.82038 9.23544 4.77639 9.23535 4.72503L9.48535 4.72461ZM9.40918 4.60938L9.45821 4.36423L9.40938 4.35446L9.36035 4.59961L9.31132 4.84475L9.36015 4.85452L9.40918 4.60938ZM9.36035 4.59961V4.34961H7.9668V4.59961V4.84961H9.36035V4.59961ZM7.9668 4.59961L7.96679 4.34961C6.35633 4.34965 5.21188 4.70701 4.46704 5.35315L4.63086 5.54199L4.79468 5.73084C5.4136 5.19394 6.42046 4.84964 7.9668 4.84961L7.9668 4.59961ZM4.63086 5.54199L4.467 5.35318C3.71326 6.00727 3.42749 6.90551 3.42481 7.8489L3.6748 7.84961L3.9248 7.85032C3.9272 7.00764 4.17918 6.26496 4.79471 5.73081L4.63086 5.54199ZM3.6748 7.84961L3.42481 7.85122L3.42579 8.00259L3.67578 8.00098L3.92578 7.99936L3.9248 7.848L3.6748 7.84961ZM3.67578 8.00098L3.42587 8.00748C3.43602 8.39767 3.51458 9.03191 4.06827 9.67571L4.25781 9.5127L4.44736 9.34968C3.99583 8.82467 3.93415 8.31929 3.9257 7.99447L3.67578 8.00098ZM4.25781 9.5127L4.01996 9.43573C3.99374 9.51675 3.96884 9.59958 3.9461 9.684L4.1875 9.74902L4.4289 9.81405C4.44917 9.73876 4.47163 9.66396 4.49567 9.58967L4.25781 9.5127ZM4.1875 9.74902L4.26559 9.51153C2.36907 8.88791 1 7.10423 1 5H0.75H0.5C0.5 7.32686 2.01413 9.29754 4.10941 9.98651L4.1875 9.74902ZM0.75 5H1C1 2.37665 3.12665 0.25 5.75 0.25V0V-0.25C2.85051 -0.25 0.5 2.10051 0.5 5H0.75ZM9.23535 4.84961H8.98535V5.41895H9.23535H9.48535V4.84961H9.23535ZM9.23535 5.41895L8.98577 5.40444C8.9012 6.85938 8.50423 7.79726 7.92963 8.37209L8.10645 8.54883L8.28326 8.72557C8.97468 8.03387 9.39619 6.96005 9.48493 5.43345L9.23535 5.41895ZM8.10645 8.54883L7.92966 8.37206C7.35788 8.94388 6.55522 9.2109 5.54101 9.21094L5.54102 9.46094L5.54103 9.71094C6.64195 9.71089 7.58957 9.41931 8.28323 8.7256L8.10645 8.54883ZM5.54102 9.46094V9.21094H4.54883V9.46094V9.71094H5.54102V9.46094ZM4.54883 9.46094L4.7308 9.28951C4.73455 9.2935 4.73728 9.29669 4.73849 9.29813C4.73957 9.29941 4.74047 9.30052 4.7396 9.29946C4.73924 9.29902 4.73726 9.29658 4.73493 9.29383C4.73249 9.29097 4.72853 9.2864 4.72344 9.2811L4.54297 9.4541L4.36249 9.6271C4.35841 9.62284 4.35543 9.61938 4.35397 9.61767C4.35261 9.61607 4.3516 9.61482 4.35221 9.61557C4.3523 9.61569 4.35417 9.61798 4.35622 9.62041C4.35841 9.62301 4.36211 9.62732 4.36686 9.63236L4.54883 9.46094ZM4.54297 9.4541L4.77814 9.53892C4.87804 9.26196 5.003 9.00625 5.15821 8.77344L4.9502 8.63477L4.74218 8.49609C4.56178 8.7667 4.41955 9.05943 4.3078 9.36928L4.54297 9.4541ZM4.9502 8.63477L5.1582 8.77345C5.50557 8.25248 6.01188 7.81917 6.73437 7.49797L6.63281 7.26953L6.53125 7.04109C5.73093 7.39689 5.14714 7.88875 4.74219 8.49608L4.9502 8.63477ZM6.63281 7.26953L6.73435 7.49798C6.9236 7.41387 7.00886 7.19221 6.92474 7.00296L6.69629 7.10449L6.46784 7.20603C6.4398 7.14294 6.46819 7.06912 6.53128 7.04108L6.63281 7.26953ZM6.69629 7.10449L6.92445 7.00231C6.84039 6.81459 6.6195 6.72821 6.42972 6.81256L6.53125 7.04102L6.63278 7.26947C6.56895 7.29784 6.4959 7.26869 6.46812 7.20667L6.69629 7.10449ZM6.53125 7.04102L6.42969 6.81257C5.59037 7.18571 4.96788 7.70695 4.53418 8.35741L4.74219 8.49609L4.95019 8.63478C5.32633 8.07066 5.87134 7.60798 6.63281 7.26946L6.53125 7.04102ZM4.74219 8.49609L4.53417 8.35742C4.36946 8.60449 4.23317 8.86788 4.12311 9.14505L4.35547 9.2373L4.58782 9.32956C4.68566 9.08316 4.80597 8.85112 4.9502 8.63477L4.74219 8.49609ZM4.35547 9.2373L4.55438 9.08587C4.28334 8.72985 4.20594 8.39436 4.18365 8.13575L3.93457 8.15723L3.68549 8.1787C3.71385 8.50755 3.81502 8.94013 4.15655 9.38874L4.35547 9.2373ZM3.93457 8.15723L4.18444 8.14929L4.17468 7.84168L3.9248 7.84961L3.67493 7.85754L3.6847 8.16516L3.93457 8.15723ZM3.9248 7.84961L4.1748 7.85034C4.17713 7.05827 4.41208 6.39356 4.95875 5.91931L4.79492 5.73047L4.6311 5.54163C3.94635 6.13567 3.67742 6.95582 3.67481 7.84888L3.9248 7.84961ZM4.79492 5.73047L4.95874 5.91932C5.5147 5.43704 6.45253 5.09964 7.9668 5.09961L7.9668 4.84961L7.96679 4.59961C6.38841 4.59965 5.31299 4.9501 4.6311 5.54162L4.79492 5.73047ZM7.9668 4.84961V5.09961H9.23535V4.84961V4.59961H7.9668V4.84961Z" fill="white" mask="url(#path-1-inside-1_55_117)"/>
</svg>
